<?xml version="1.0" encoding="utf-8"?>
<!-- Generator: Adobe Illustrator 24.3.0, SVG Export Plug-In . SVG Version: 6.00 Build 0)  -->
<svg version="1.1" id="Layer_1" xmlns="http://www.w3.org/2000/svg" xmlns:xlink="http://www.w3.org/1999/xlink" x="0px" y="0px"
	 viewBox="0 0 200 200" width="200" height="200" style="enable-background:new 0 0 200 200;" xml:space="preserve">
<path d="M67.5,184c4.8-1.1,8.3-2.8,12-6.2c6.4-5.7,10.6-13.9,12.5-24.3c1.4-7.7,0.9-14.4-1.6-20.7c-1.2-3.1-2.1-4.7-4.1-7
	c-3.5-4.2-7.5-6.4-11.9-6.7c-2.5-0.2-4.3,0.2-7.1,1.4c-10,4.2-17.5,14.6-20.1,27.8c-1.1,5.4-1.1,13.4,0,18.1
	c1.7,7.7,6.6,14,12.9,16.7C61.9,183.9,65.8,184.4,67.5,184z"/>
<path d="M131.2,187.1c6.6-1.7,12.4-7.7,14.9-15.6c0.4-1.1,0.9-3.7,1.2-5.9c1.9-13-1.7-26.6-9.5-35.3c-3.1-3.5-7.6-6.6-11.3-7.8
	c-5.3-1.8-12.6,0.9-16.8,6.1c-4.1,5-6.2,11-6.7,18.8c-0.3,4.6-0.1,8.3,0.8,12.7c2.5,12.7,9.1,22,18.6,26.1
	C124.7,187.2,129,187.7,131.2,187.1z"/>
<path d="M31.7,129.8c6.3-0.9,12.8-4.8,17.5-10.3c4.6-5.5,7.6-11.9,9.3-19.7c0.9-4.4,1.1-6.2,0.7-9.5c-0.5-5.3-2.4-9.9-5.3-13.3
	c-2-2.3-4-3.8-6.6-4.6c-5.8-1.9-13.7,0.2-20.1,5.4c-4.2,3.4-8.8,9.9-11.1,15.5c-2.1,5.2-3.4,11.9-3.2,16.6c0.2,4.2,1.5,8.9,3.5,12.2
	c0.7,1.1,2.8,3.6,4,4.6C23.3,129.3,27.5,130.4,31.7,129.8z"/>
<path d="M169.6,135.4c6.9-0.6,12.3-4.7,14.5-10.9c1.6-4.7,2.3-9.8,1.9-14.8c-0.7-8.9-4.1-17.1-9.6-23.4c-3.8-4.3-7.3-6.8-12.3-8.8
	c-5.9-2.3-11.2-1.3-15.9,3.1c-3.9,3.7-5.6,7.7-6.3,15.1c-0.3,3.3-0.3,4.5,0,7.3c0.9,8.7,4.2,16.1,9.8,22.6c3.8,4.3,8.3,7.7,11.8,8.9
	C165,135,168.4,135.5,169.6,135.4z"/>
<path d="M102.9,96.8c12.6-0.8,25.3-7.3,33.7-17.2c7.1-8.4,12.7-17.3,16.6-26.2c2.6-6,5.1-13.9,5.3-17.1c0.5-7.2-3.7-14.6-9.8-17.6
	c-2.4-1.1-5.3-1.8-8.2-1.7c-5.1,0.1-8.6,0.8-18,3.7c-10,3.1-12.6,3.6-18.5,3.9c-8.1,0.4-13.3-1-24.7-6.8
	c-10.1-5.1-12.4-5.9-16.7-6.2c-8.1-0.5-14.9,3.3-17.3,9.8c-0.8,2.4-1.3,8.3-0.8,11.1c1.2,7,3.9,14.2,8.1,22
	c9.4,17.6,16.9,27.5,26.3,34.7c4.2,3.2,8.2,5.2,12.8,6.4C94,96.4,100.3,97,102.9,96.8z"/>
</svg>
