<?xml version="1.0" encoding="utf-8"?>
<!-- Generator: Adobe Illustrator 24.3.0, SVG Export Plug-In . SVG Version: 6.00 Build 0)  -->
<svg version="1.1" id="Layer_1" xmlns="http://www.w3.org/2000/svg" xmlns:xlink="http://www.w3.org/1999/xlink" x="0px" y="0px"
	 viewBox="0 0 200 200" width="200" height="200" style="enable-background:new 0 0 200 200;" xml:space="preserve">
<path d="M77,187.1c4.7-1.6,7.9-3.7,11.2-7.5c5.7-6.4,9-15,9.8-25.6c0.5-7.8-0.7-14.4-3.9-20.4c-1.6-2.9-2.6-4.4-4.8-6.5
	c-3.9-3.7-8.2-5.5-12.6-5.3c-2.5,0.1-4.2,0.7-6.9,2.2c-9.4,5.3-15.7,16.5-16.9,29.9c-0.5,5.5,0.4,13.4,2,18
	c2.5,7.4,8.1,13.2,14.6,15.2C71.4,187.6,75.3,187.6,77,187.1z"/>
<path d="M140.6,183.1c6.4-2.4,11.4-9.1,13.1-17.1c0.2-1.1,0.5-3.8,0.6-6c0.4-13.2-4.7-26.3-13.4-34.1c-3.5-3.1-8.3-5.7-12.1-6.5
	c-5.4-1.2-12.4,2.3-16,8c-3.5,5.4-4.9,11.6-4.6,19.5c0.2,4.6,0.9,8.3,2.2,12.5c3.9,12.4,11.5,20.9,21.4,23.9
	C134.2,184,138.5,183.9,140.6,183.1z"/>
<path d="M35.4,137.2c6.1-1.6,12.2-6.2,16.2-12.2c4-6,6.3-12.7,7-20.6c0.4-4.5,0.4-6.2-0.3-9.5c-1.1-5.2-3.4-9.6-6.7-12.6
	c-2.3-2.1-4.4-3.3-7.1-3.8c-6-1.3-13.6,1.7-19.4,7.6c-3.8,3.8-7.7,10.8-9.3,16.6c-1.5,5.4-2,12.2-1.3,16.9c0.6,4.1,2.5,8.7,4.8,11.7
	c0.8,1.1,3.2,3.2,4.5,4.2C27,137.6,31.3,138.3,35.4,137.2z"/>
<path d="M173.1,127.4c6.7-1.4,11.7-6,13.2-12.4c1.1-4.9,1.2-10,0.2-14.9c-1.7-8.8-6-16.6-12.1-22.2c-4.2-3.8-8-6-13.2-7.4
	c-6.1-1.7-11.3,0-15.4,4.9c-3.5,4.1-4.7,8.3-4.6,15.8c0.1,3.3,0.2,4.6,0.8,7.3c1.9,8.5,5.9,15.6,12.2,21.4c4.2,3.9,9.1,6.7,12.7,7.5
	C168.5,127.6,171.9,127.7,173.1,127.4z"/>
<path d="M102.5,96.5c12.5-2.2,24.4-10,31.6-20.8c6.1-9.2,10.7-18.6,13.6-27.8c1.9-6.2,3.5-14.4,3.3-17.6
	c-0.3-7.2-5.3-14.1-11.7-16.4c-2.5-0.9-5.5-1.2-8.3-0.8c-5.1,0.6-8.5,1.7-17.5,5.6c-9.6,4.2-12.1,5-18,5.9c-8,1.3-13.4,0.5-25.3-4
	c-10.6-3.9-12.9-4.5-17.3-4.3c-8.1,0.4-14.4,5-16.1,11.7c-0.6,2.4-0.4,8.4,0.4,11.1c2,6.8,5.4,13.7,10.4,21
	c11.3,16.5,19.9,25.5,30,31.5c4.5,2.7,8.7,4.3,13.5,5C93.6,97.1,100,97,102.5,96.5z"/>
</svg>
